<svg xmlns="http://www.w3.org/2000/svg" xmlns:xlink="http://www.w3.org/1999/xlink" id="Layer_1" x="0px" y="0px" viewBox="0 0 1338.6 750.8" style="enable-background:new 0 0 1338.6 750.8;" xml:space="preserve">
<style type="text/css">
	.st0{fill:#FFFFFF;}
</style>
<path class="st0" d="M15.3,356.3c32.9,3.8,60.2,5.2,81.8,4.5c21.6-0.7,31.6-4.1,31.6-17.2c0-20.6-18-13.9-54.9-14.5 c-21.6-0.3-37.2-1.8-49.2-13.6c-11.6-11.4-18-30.4-18-57c0-61.9,30.9-87.9,104.8-97.4c29.3-3.8,62.5-4.5,100.4-4v80.9 c-25.6-1.7-47.9-2.1-66.9-0.4c-32.9,3-45.9,5.9-45.9,21.5c0,11.2,8.7,13.9,26.6,12.6l13.3-1c59.2-4.4,81.8,10,81.8,70.4 c0,60.4-30.3,87.3-100.4,87.3c-25.9,0-61.2-3.3-105.1-10.1L15.3,356.3L15.3,356.3z M368.6,350.9c22-0.7,26.5-14.3,26.5-43.7V126.3 l96-12.3v201.5c0,84-34.3,112.5-122.5,112.5s-122.1-25.6-122.1-101.3V145.3l96-12.3v176.9C342.5,338.5,346.6,351.6,368.6,350.9 L368.6,350.9z M530,109.1L694.9,88c56.6-7.2,83.4,25.7,83.4,101.6c0,88.4-29.5,134.1-88.6,136.4l-63.4,2.4v91.3L530,420V109.1z  M643.3,252.5c27.8-1.9,40.7-12.1,40.7-42.7c0-27.5-11.9-32.2-38.4-29.7l-19.3,1.8v71.7L643.3,252.5z M798.6,74.7l206.6-26.4v108.1 l-113.3,10.4V208l113.3-8.7V280l-113.3,5.6v43.6l113.3-3.9v93.2l-206.6,0.7V74.7z M1047.5,42.9l167.9-21.5 c57.3-7.3,83.4,23.8,83.4,103.2c0,79.4-23.1,119.6-68.2,125.9l79.4,167l-111.3,0.4l-37.3-90.1c-7.5-18-13.6-36.6-18.7-56.2l-2,0.1 c1.7,25.5,1.7,50,1.7,72.9V418l-95,0.3L1047.5,42.9L1047.5,42.9z M1162.6,210.2c27.8-1.9,40.7-12.9,40.7-46.4 c0-30.8-12.6-35.5-38.3-33l-22.4,2.1v78.7L1162.6,210.2z M11,461.8v276.1h1302.6V461.8H11z M289.5,656.8 c-6.5,18.7-25.2,27.6-53.8,29.7c-19.9,1.4-46.6,1.3-61.9,0c-15.4-1.3-44.6-5.9-44.6-5.9V640c0,0,32.2,4.1,46.7,4 c14.4-0.1,44,1.9,44.6-7.9c0.8-12.1-3.9-14.1-19.3-14.8c-15.3-0.7-45.3,1.3-61.2-10c-9.6-6.8-16.5-16.1-17.9-33.5 c-1-12.1,1.7-32,8.1-42.5c8.7-14.3,30.9-21.4,47.7-22.7c25.9-2.1,40.4-1,62.9,0c22.5,1,45.7,4,45.7,4v49.5c0,0-46.2-4.1-61.9-4 c-24,0.3-30.6,6.1-29.4,13.8c1.4,9,11.1,8.8,17.3,9.3c6.8,0.6,25.8,0.5,43.5,2.5c21.9,2.5,31.4,11.3,35.5,26.7 C295.4,628.8,294.7,641.7,289.5,656.8L289.5,656.8z M424.4,608.4c3,19.2,14.5,21.6,28.4,23.7c21.1,3.2,61.9-5,61.9-5l1,50.4 c0,0-42.3,11.3-75.1,10.9c-23.4-0.3-53.7-2.4-71-20.8c-14.2-15.1-31.5-41.8-22.3-93.9c4.8-27.3,15.7-42.1,36.5-52.4 c25.2-12.4,58.4-9.9,82.2-8.9c23.2,1,49.7,7.9,49.7,7.9l-1,55.4c0,0-47.8-5-69-2C430.3,575.9,421.5,589.1,424.4,608.4L424.4,608.4z  M709.5,683.5l-5.1-25.7l-56.8-1l-0.3,1h-0.6l-6.2,25.7h-76.1l55.8-167.1l111.6-1l54.8,169.1L709.5,683.5L709.5,683.5z M833.3,683.5 l1-168.1h73l1,114.7l75.1,1l2,52.4L833.3,683.5L833.3,683.5z M1202.7,585.6l-0.1,34.6l-89.3,1V643h88.6l0.9,40.5l-162.5-1l1-167.1 l161.5,1l-0.1,46.5l-88.3,1l-1,20.8L1202.7,585.6L1202.7,585.6z M656.4,618.2h37.4L675,541.1L656.4,618.2L656.4,618.2z"/>
</svg>
